Coordinates
version=1
nRows=13
nColumns=30
inDegrees=yes

Units are S.I. units (second, meters, Newtons, ...)
Angles are in degrees.

endheader
time	floatyaw	floatroll	floatpitch	floatx	floaty	floatz	pro_sup_l	deviation_l	flexion_l	cmc_flexion_l	cmc_abduction_l	mp_flexion_l	ip_flexion_l	2mcp_flexion_l	2mcp_abduction_l	2pm_flexion_l	2md_flexion_l	3mcp_flexion_l	3mcp_abduction_l	3pm_flexion_l	3md_flexion_l	4mcp_flexion_l	4mcp_abduction_l	4pm_flexion_l	4md_flexion_l	5mcp_flexion_l	5mcp_abduction_l	5pm_flexion_l	5md_flexion_l
-1.495000	-3.046650	-4.537392	92.867313	-0.008118	-0.258842	-0.003379	91.482477	0.185952	-2.707286	27.559950	-0.041069	-19.065196	-34.463155	18.221642	6.749153	33.086943	20.149673	7.481161	4.713997	36.428982	21.331723	-3.772804	-3.602150	53.998895	31.850963	-22.894820	-9.674404	64.610670	47.544130
-1.485000	-3.046650	-4.537392	92.867313	-0.008113	-0.258830	-0.003400	91.483245	0.197019	-2.690629	27.518520	-0.064089	-19.033436	-34.412964	18.184518	6.727868	33.124927	20.148911	7.437737	4.705553	36.476910	21.331730	-3.804110	-3.600744	54.045165	31.828958	-22.925318	-9.673665	64.644507	47.556370
-1.475000	-3.046650	-4.537392	92.867313	-0.008108	-0.258824	-0.003422	91.483954	0.209060	-2.677024	27.473629	-0.086911	-19.000779	-34.350352	18.147230	6.706495	33.159057	20.155394	7.398439	4.695492	36.524656	21.328882	-3.838521	-3.600597	54.099796	31.792618	-22.962147	-9.671888	64.699627	47.546348
-1.465000	-3.046650	-4.537392	92.867313	-0.008103	-0.258824	-0.003441	91.484360	0.219341	-2.670103	27.435872	-0.102312	-18.977296	-34.288232	18.122756	6.688213	33.178359	20.166644	7.375429	4.686130	36.557810	21.322325	-3.862989	-3.599456	54.146397	31.751455	-22.990515	-9.670110	64.761090	47.519411
-1.455000	-3.046650	-4.537392	92.867313	-0.008100	-0.258829	-0.003449	91.484772	0.225416	-2.671274	27.409243	-0.106783	-18.969108	-34.233913	18.118808	6.674367	33.175385	20.178660	7.375775	4.680148	36.564932	21.313254	-3.868035	-3.596210	54.169024	31.716141	-22.996645	-9.668731	64.810054	47.485499
-1.445000	-3.046650	-4.537392	92.867313	-0.008103	-0.258837	-0.003441	91.486499	0.225860	-2.679395	27.392083	-0.102281	-18.976401	-34.189775	18.134213	6.664885	33.150122	20.188232	7.399094	4.679678	36.542007	21.304078	-3.851803	-3.591510	54.158838	31.694210	-22.973796	-9.667399	64.831195	47.455247
-1.435000	-3.046650	-4.537392	92.867313	-0.008111	-0.258847	-0.003418	91.490446	0.220334	-2.691483	27.380098	-0.093473	-18.994279	-34.155926	18.160389	6.659295	33.109910	20.194393	7.438584	4.685603	36.493452	21.296939	-3.820800	-3.587554	54.117719	31.687886	-22.925957	-9.665644	64.818325	47.436446
-1.425000	-3.046650	-4.537392	92.867313	-0.008124	-0.258860	-0.003382	91.495232	0.209286	-2.703871	27.369168	-0.083272	-19.015619	-34.132138	18.186719	6.657470	33.065267	20.198491	7.484358	4.697258	36.429528	21.293002	-3.786902	-3.587045	54.056898	31.694880	-22.867060	-9.663712	64.775838	47.432132
-1.415000	-3.046650	-4.537392	92.867313	-0.008139	-0.258874	-0.003341	91.496964	0.193800	-2.713304	27.356833	-0.070851	-19.034174	-34.118217	18.205973	6.659640	33.024639	20.203199	7.527108	4.712603	36.362024	21.292710	-3.762107	-3.591779	53.991678	31.710864	-22.815488	-9.662958	64.715752	47.440605
-1.405000	-3.046650	-4.537392	92.867313	-0.008151	-0.258890	-0.003305	91.491351	0.175643	-2.717878	27.342548	-0.053435	-19.046502	-34.113820	18.216535	6.665877	32.991711	20.211114	7.560771	4.728866	36.300543	21.296130	-3.753448	-3.601634	53.935165	31.731690	-22.786037	-9.665457	64.651882	47.457079
-1.395000	-3.046650	-4.537392	92.867313	-0.008158	-0.258905	-0.003278	91.476739	0.157225	-2.717716	27.327325	-0.029610	-19.052254	-34.118653	18.220864	6.675611	32.966653	20.223566	7.583762	4.743480	36.250682	21.302701	-3.760268	-3.614570	53.893986	31.754281	-22.783026	-9.672998	64.593831	47.476244
-1.385000	-3.046650	-4.537392	92.867313	-0.008160	-0.258919	-0.003261	91.455774	0.141145	-2.714986	27.313181	-0.001217	-19.053246	-34.132646	18.222064	6.687505	32.949625	20.240034	7.598596	4.754954	36.214142	21.310713	-3.775172	-3.627631	53.867665	31.776424	-22.798386	-9.685951	64.543715	47.494688
-1.375000	-3.046650	-4.537392	92.867313	-0.008159	-0.258931	-0.003251	91.434315	0.129419	-2.712867	27.302242	0.027197	-19.051940	-34.154980	18.221101	6.699629	32.943225	20.258209	7.609791	4.763192	36.190062	21.317398	-3.788420	-3.638309	53.851491	31.796249	-22.816399	-9.702597	64.497329	47.512075
